<svg xmlns="http://www.w3.org/2000/svg" xmlns:xlink="http://www.w3.org/1999/xlink" width="200" zoomAndPan="magnify" viewBox="0 0 150 225" height="300" preserveAspectRatio="xMidYMid meet" version="1.0"><defs><clipPath id="70acb631d7"><path d="M 4.289062 1.871094 L 146 1.871094 L 146 223.121094 L 4.289062 223.121094 Z M 4.289062 1.871094 " clip-rule="nonzero"/></clipPath><clipPath id="325fb8d57d"><path d="M 83.238281 89.230469 L 83.644531 89.230469 L 83.644531 89.511719 L 83.238281 89.511719 Z M 83.238281 89.230469 " clip-rule="nonzero"/></clipPath><clipPath id="ee7a5b563a"><path d="M 83.625 89.398438 C 82.875 89.699219 83.476562 89.25 83.476562 89.25 " clip-rule="nonzero"/></clipPath></defs><path fill="#ffffff" d="M 16.175781 152.933594 C 9.679688 141.167969 5.929688 127.3125 5.929688 112.484375 C 5.929688 97.65625 9.679688 83.800781 16.175781 72.035156 L 16.175781 35.308594 L 35.328125 35.308594 C 36.238281 33.488281 37.324219 31.648438 38.585938 29.808594 C 44.953125 19.84375 67 12.863281 74.984375 3.242188 C 82.730469 13.25 105.007812 19.84375 111.375 29.808594 C 112.636719 31.648438 113.722656 33.488281 114.640625 35.308594 L 133.792969 35.308594 L 133.792969 72.035156 C 140.289062 83.800781 144.039062 97.65625 144.039062 112.484375 C 144.039062 127.3125 140.289062 141.167969 133.792969 152.933594 L 133.792969 189.660156 L 114.640625 189.660156 C 113.722656 191.480469 112.636719 193.320312 111.375 195.160156 C 105.007812 205.125 82.730469 211.71875 74.984375 221.726562 C 67 212.105469 44.953125 205.125 38.585938 195.160156 C 37.324219 193.320312 36.238281 191.480469 35.328125 189.660156 L 16.175781 189.660156 Z M 16.175781 152.933594 " fill-opacity="1" fill-rule="evenodd"/><g clip-path="url(#70acb631d7)"><path stroke-linecap="round" transform="matrix(0.841221, 0, 0, -0.687826, -1028.612885, 181.545002)" fill="none" stroke-linejoin="round" d="M 1241.991399 41.596892 C 1234.269174 58.702426 1229.811366 78.846293 1229.811366 100.404264 C 1229.811366 121.962235 1234.269174 142.106102 1241.991399 159.211636 L 1241.991399 212.6068 L 1264.758727 212.6068 C 1265.840674 215.253273 1267.131581 217.928143 1268.631448 220.603012 C 1276.200435 235.090468 1302.408634 245.23907 1311.900051 259.226763 C 1321.108212 244.676836 1347.59038 235.090468 1355.159367 220.603012 C 1356.659234 217.928143 1357.950141 215.253273 1359.041375 212.6068 L 1381.808703 212.6068 L 1381.808703 159.211636 C 1389.530928 142.106102 1393.988736 121.962235 1393.988736 100.404264 C 1393.988736 78.846293 1389.530928 58.702426 1381.808703 41.596892 L 1381.808703 -11.798272 L 1359.041375 -11.798272 C 1357.950141 -14.444745 1356.659234 -17.119615 1355.159367 -19.794484 C 1347.59038 -34.28194 1321.108212 -43.868309 1311.900051 -58.418235 C 1302.408634 -44.430542 1276.200435 -34.28194 1268.631448 -19.794484 C 1267.131581 -17.119615 1265.840674 -14.444745 1264.758727 -11.798272 L 1241.991399 -11.798272 Z M 1241.991399 41.596892 " stroke="#fbc50b" stroke-width="3.95" stroke-opacity="1" stroke-miterlimit="1.5"/></g><g clip-path="url(#325fb8d57d)"><g clip-path="url(#ee7a5b563a)"><path fill="#e7fce3" d="M 79.949219 86.25 L 86.703125 86.25 L 86.703125 92.773438 L 79.949219 92.773438 Z M 79.949219 86.25 " fill-opacity="1" fill-rule="nonzero"/></g></g></svg>