<svg xmlns="http://www.w3.org/2000/svg" xmlns:xlink="http://www.w3.org/1999/xlink" width="600" zoomAndPan="magnify" viewBox="0 0 450 149.999998" height="200" preserveAspectRatio="xMidYMid meet" version="1.0"><defs><clipPath id="26013cb943"><path d="M 232.050781 63.503906 L 232.398438 63.503906 L 232.398438 63.746094 L 232.050781 63.746094 Z M 232.050781 63.503906 " clip-rule="nonzero"/></clipPath><clipPath id="acebe7b2a9"><path d="M 232.382812 63.648438 C 231.742188 63.90625 232.253906 63.519531 232.253906 63.519531 " clip-rule="nonzero"/></clipPath><clipPath id="7cb6f953aa"><path d="M 62.597656 0 L 387.347656 0 L 387.347656 136 L 62.597656 136 Z M 62.597656 0 " clip-rule="nonzero"/></clipPath><clipPath id="c82871a67a"><path d="M 62.597656 44 L 387.347656 44 L 387.347656 150 L 62.597656 150 Z M 62.597656 44 " clip-rule="nonzero"/></clipPath></defs><g clip-path="url(#26013cb943)"><g clip-path="url(#acebe7b2a9)"><path fill="#e7fce3" d="M 229.238281 60.953125 L 235.019531 60.953125 L 235.019531 66.539062 L 229.238281 66.539062 Z M 229.238281 60.953125 " fill-opacity="1" fill-rule="nonzero"/></g></g><g clip-path="url(#7cb6f953aa)"><path fill="#ffc559" d="M 363.703125 0.0078125 L 359.367188 4.339844 L 353.894531 4.339844 L 352.097656 0.0078125 L 350.382812 0.0078125 L 348.117188 5.476562 L 342.625 7.753906 L 337.132812 5.476562 L 334.867188 0.0078125 L 333.171875 0.0078125 L 331.375 4.34375 L 325.898438 4.34375 L 321.566406 0.0078125 L 319.351562 0.0078125 L 323.683594 4.34375 L 317.554688 4.34375 L 317.554688 10.46875 L 313.222656 6.136719 L 308.886719 10.46875 L 308.886719 4.34375 L 302.757812 4.34375 L 307.089844 0.0078125 L 304.875 0.0078125 L 300.542969 4.34375 L 295.066406 4.34375 L 293.269531 0.0078125 L 291.554688 0.0078125 L 289.289062 5.476562 L 283.796875 7.753906 L 278.308594 5.476562 L 276.042969 0.0117188 L 274.34375 0.0117188 L 272.550781 4.34375 L 267.074219 4.34375 L 262.738281 0.0117188 L 260.523438 0.0117188 L 264.855469 4.34375 L 258.726562 4.34375 L 258.726562 10.472656 L 254.394531 6.140625 L 250.0625 10.472656 L 250.0625 4.34375 L 243.933594 4.34375 L 248.265625 0.0117188 L 246.050781 0.0117188 L 241.714844 4.34375 L 236.238281 4.34375 L 234.445312 0.0117188 L 232.730469 0.0117188 L 230.460938 5.480469 L 224.972656 7.753906 L 219.480469 5.480469 L 217.214844 0.0117188 L 215.519531 0.0117188 L 213.722656 4.347656 L 208.246094 4.347656 L 203.914062 0.0117188 L 201.699219 0.0117188 L 206.03125 4.347656 L 199.902344 4.347656 L 199.902344 10.472656 L 195.566406 6.140625 L 191.234375 10.472656 L 191.234375 4.347656 L 185.105469 4.347656 L 189.4375 0.0117188 L 187.222656 0.0117188 L 182.890625 4.347656 L 177.414062 4.347656 L 175.617188 0.0117188 L 173.902344 0.0117188 L 171.632812 5.480469 L 166.140625 7.757812 L 160.652344 5.480469 L 158.386719 0.015625 L 156.6875 0.015625 L 156.691406 0.015625 L 154.894531 4.347656 L 149.417969 4.347656 L 145.085938 0.0117188 L 142.867188 0.0117188 L 147.203125 4.347656 L 141.074219 4.347656 L 141.074219 10.476562 L 136.738281 6.144531 L 132.40625 10.476562 L 132.40625 4.347656 L 126.277344 4.347656 L 130.609375 0.0117188 L 128.394531 0.0117188 L 124.058594 4.347656 L 118.585938 4.347656 L 116.789062 0.015625 L 115.074219 0.015625 L 112.808594 5.484375 L 107.316406 7.757812 L 101.824219 5.484375 L 99.558594 0.015625 L 97.863281 0.015625 L 96.066406 4.347656 L 90.589844 4.347656 L 86.257812 0.015625 L 84.042969 0.015625 L 88.375 4.347656 L 82.246094 4.347656 L 82.246094 10.476562 L 77.914062 6.144531 L 77.910156 6.144531 L 73.578125 10.476562 L 73.578125 4.347656 L 67.449219 4.347656 L 71.78125 0.015625 L 69.566406 0.015625 L 65.234375 4.347656 L 62.863281 4.347656 L 62.863281 5.878906 L 63.679688 5.878906 L 62.863281 6.691406 L 62.863281 8.910156 L 65.894531 5.878906 L 72.023438 5.878906 L 72.023438 12.007812 L 68.148438 15.878906 L 63.816406 14.085938 L 62.863281 11.785156 L 62.863281 15.878906 L 64.410156 19.617188 L 62.863281 21.164062 L 62.863281 23.382812 L 66.261719 19.984375 L 64.664062 16.132812 L 68.519531 17.726562 L 72.023438 14.222656 L 72.023438 19.179688 L 75.878906 20.777344 L 71.234375 22.699219 L 69.308594 27.347656 L 67.714844 23.492188 L 62.863281 23.492188 L 62.863281 25.058594 L 66.664062 25.058594 L 68.460938 29.394531 L 66.664062 33.726562 L 62.863281 33.726562 L 62.863281 35.292969 L 67.714844 35.292969 L 69.3125 31.433594 L 71.234375 36.078125 L 75.882812 38.003906 L 72.023438 39.601562 L 72.023438 44.5625 L 68.515625 41.058594 L 64.664062 42.652344 L 66.261719 38.796875 L 62.863281 35.398438 L 62.863281 37.613281 L 64.414062 39.164062 L 62.863281 42.902344 L 62.863281 47 L 63.8125 44.699219 L 63.820312 44.699219 L 68.148438 42.898438 L 72.023438 46.773438 L 72.023438 52.90625 L 65.898438 52.90625 L 62.863281 49.871094 L 62.863281 52.089844 L 63.675781 52.90625 L 62.863281 52.90625 L 62.863281 54.472656 L 65.246094 54.472656 L 69.582031 58.808594 L 71.800781 58.808594 L 67.46875 54.472656 L 73.59375 54.472656 L 73.59375 48.339844 L 77.929688 52.675781 L 82.261719 48.34375 L 82.261719 54.476562 L 88.394531 54.476562 L 84.0625 58.808594 L 86.273438 58.808594 L 90.605469 54.476562 L 96.085938 54.476562 L 97.875 58.808594 L 99.578125 58.808594 L 101.851562 53.316406 L 107.34375 51.042969 L 112.832031 53.316406 L 115.109375 58.808594 L 116.808594 58.808594 L 118.601562 54.476562 L 124.074219 54.476562 L 128.410156 58.808594 L 130.628906 58.808594 L 126.292969 54.476562 L 132.421875 54.476562 L 132.421875 48.34375 L 136.753906 52.679688 L 141.089844 48.34375 L 141.089844 54.476562 L 147.222656 54.476562 L 142.886719 58.808594 L 145.101562 58.808594 L 149.433594 54.476562 L 154.914062 54.476562 L 156.703125 58.808594 L 158.40625 58.808594 L 160.679688 53.320312 L 166.167969 51.042969 L 171.660156 53.320312 L 173.933594 58.808594 L 175.632812 58.808594 L 177.429688 54.476562 L 182.902344 54.476562 L 187.234375 58.808594 L 189.457031 58.808594 L 185.121094 54.476562 L 191.246094 54.476562 L 191.246094 48.34375 L 195.582031 52.675781 L 199.910156 48.347656 L 199.910156 54.476562 L 206.042969 54.476562 L 201.710938 58.8125 L 203.921875 58.8125 L 208.257812 54.476562 L 213.734375 54.476562 L 215.523438 58.8125 L 215.785156 58.8125 C 216.484375 58.359375 217.160156 57.890625 217.808594 57.410156 L 219.503906 53.320312 L 223.71875 51.570312 C 224.207031 50.90625 224.65625 50.222656 225.070312 49.507812 C 225.5 50.253906 225.972656 50.96875 226.484375 51.664062 L 230.484375 53.320312 L 232.109375 57.242188 C 232.824219 57.785156 233.574219 58.308594 234.351562 58.8125 L 234.457031 58.8125 L 236.253906 54.476562 L 241.726562 54.476562 L 246.058594 58.8125 L 248.277344 58.8125 L 243.945312 54.476562 L 250.070312 54.476562 L 250.070312 48.347656 L 254.402344 52.679688 L 254.402344 52.671875 L 258.734375 48.339844 L 258.734375 54.472656 L 264.867188 54.472656 L 260.53125 58.808594 L 262.746094 58.808594 L 267.078125 54.472656 L 272.554688 54.472656 L 274.347656 58.808594 L 276.046875 58.808594 L 278.324219 53.316406 L 283.8125 51.039062 L 289.304688 53.316406 L 291.578125 58.808594 L 293.277344 58.808594 L 295.074219 54.472656 L 300.546875 54.472656 L 304.878906 58.808594 L 307.097656 58.808594 L 302.765625 54.472656 L 308.890625 54.472656 L 308.890625 48.339844 L 313.226562 52.675781 L 317.558594 48.34375 L 317.558594 54.476562 L 323.691406 54.476562 L 319.359375 58.808594 L 321.570312 58.808594 L 325.90625 54.476562 L 331.382812 54.476562 L 333.171875 58.808594 L 334.875 58.808594 L 337.152344 53.316406 L 342.640625 51.042969 L 348.132812 53.316406 L 350.40625 58.808594 L 352.105469 58.808594 L 353.902344 54.476562 L 359.375 54.476562 L 363.707031 58.808594 L 365.925781 58.808594 L 361.59375 54.476562 L 367.71875 54.476562 L 367.71875 48.34375 L 372.054688 52.679688 L 376.386719 48.34375 L 376.386719 54.476562 L 382.519531 54.476562 L 378.1875 58.808594 L 380.398438 58.808594 L 384.734375 54.476562 L 387.109375 54.476562 L 387.109375 52.898438 L 386.292969 52.898438 L 387.109375 52.082031 L 387.109375 49.867188 L 384.078125 52.898438 L 377.945312 52.898438 L 377.945312 46.765625 L 381.820312 42.894531 L 386.15625 44.691406 L 387.109375 46.992188 L 387.109375 42.898438 L 385.558594 39.160156 L 387.109375 37.609375 L 387.109375 35.390625 L 383.710938 38.789062 L 385.308594 42.648438 L 381.453125 41.050781 L 377.949219 44.554688 L 377.949219 39.59375 L 374.089844 37.996094 L 378.738281 36.070312 L 380.660156 31.429688 L 382.257812 35.285156 L 387.109375 35.285156 L 387.109375 33.71875 L 383.304688 33.71875 L 381.511719 29.386719 L 383.304688 25.050781 L 387.109375 25.050781 L 387.109375 23.488281 L 382.257812 23.488281 L 380.664062 27.339844 L 378.738281 22.695312 L 374.097656 20.769531 L 377.949219 19.175781 L 377.949219 14.214844 L 381.453125 17.722656 L 385.304688 16.125 L 383.710938 19.980469 L 387.109375 23.378906 L 387.109375 21.164062 L 385.558594 19.613281 L 387.109375 15.867188 L 387.109375 11.777344 L 386.15625 14.078125 L 381.824219 15.871094 L 377.949219 12 L 377.949219 5.871094 L 384.078125 5.871094 L 387.109375 8.902344 L 387.109375 6.6875 L 386.292969 5.871094 L 387.109375 5.871094 L 387.109375 4.332031 L 384.722656 4.332031 L 380.386719 0 L 378.171875 0 L 382.507812 4.332031 L 376.375 4.332031 L 376.375 10.460938 L 372.042969 6.128906 L 367.710938 10.460938 L 367.710938 4.332031 L 361.582031 4.332031 L 365.914062 0 Z M 115.941406 2 L 117.546875 5.878906 L 122.503906 5.878906 L 119 9.382812 L 120.59375 13.238281 L 116.742188 11.640625 L 113.234375 15.148438 L 113.234375 10.191406 L 109.351562 8.578125 L 114.015625 6.644531 Z M 174.765625 2 L 176.375 5.878906 L 181.332031 5.878906 L 177.824219 9.382812 L 179.421875 13.238281 L 175.566406 11.640625 L 172.0625 15.148438 L 172.0625 10.191406 L 168.175781 8.578125 L 172.84375 6.644531 Z M 233.59375 2 L 235.199219 5.878906 L 240.15625 5.878906 L 236.652344 9.382812 L 238.246094 13.238281 L 234.394531 11.640625 L 230.886719 15.148438 L 230.886719 10.191406 L 227.003906 8.578125 L 231.667969 6.644531 Z M 292.417969 2 L 294.027344 5.878906 L 298.984375 5.878906 L 295.476562 9.382812 L 297.074219 13.238281 L 293.21875 11.640625 L 289.714844 15.148438 L 289.714844 10.191406 L 285.828125 8.578125 L 290.496094 6.644531 Z M 351.246094 2 L 352.851562 5.878906 L 357.808594 5.878906 L 354.304688 9.382812 L 355.898438 13.238281 L 352.046875 11.640625 L 348.539062 15.148438 L 348.539062 10.191406 L 344.65625 8.578125 L 349.320312 6.644531 Z M 98.722656 2.023438 L 100.636719 6.644531 L 105.3125 8.582031 L 101.4375 10.1875 L 101.4375 15.144531 L 97.929688 11.640625 L 94.078125 13.238281 L 95.671875 9.382812 L 92.167969 5.875 L 97.125 5.875 Z M 157.546875 2.023438 L 159.464844 6.644531 L 164.140625 8.582031 L 160.261719 10.1875 L 160.261719 15.144531 L 156.757812 11.640625 L 152.902344 13.238281 L 154.5 9.382812 L 150.992188 5.875 L 155.953125 5.875 Z M 216.375 2.023438 L 218.289062 6.644531 L 222.964844 8.582031 L 219.089844 10.1875 L 219.089844 15.144531 L 215.582031 11.640625 L 211.730469 13.238281 L 213.324219 9.382812 L 209.820312 5.875 L 214.777344 5.875 Z M 275.199219 2.023438 L 277.117188 6.644531 L 281.792969 8.582031 L 277.914062 10.1875 L 277.914062 15.144531 L 274.410156 11.640625 L 270.554688 13.238281 L 272.152344 9.382812 L 268.644531 5.875 L 273.605469 5.875 Z M 334.027344 2.023438 L 335.941406 6.644531 L 340.617188 8.582031 L 336.742188 10.1875 L 336.742188 15.144531 L 333.234375 11.640625 L 329.382812 13.238281 L 330.976562 9.382812 L 327.472656 5.875 L 332.429688 5.875 Z M 83.824219 5.875 L 89.953125 5.875 L 93.824219 9.75 L 92.03125 14.085938 L 87.699219 15.878906 L 83.824219 12.003906 Z M 124.722656 5.875 L 130.851562 5.875 L 130.851562 12.003906 L 126.976562 15.878906 L 122.644531 14.085938 L 120.847656 9.75 Z M 142.648438 5.875 L 148.777344 5.875 L 152.652344 9.75 L 150.855469 14.085938 L 146.523438 15.878906 L 142.652344 12.003906 Z M 183.546875 5.875 L 189.675781 5.875 L 189.675781 12.003906 L 185.800781 15.878906 L 181.46875 14.085938 L 179.675781 9.75 Z M 201.476562 5.875 L 207.605469 5.875 L 211.476562 9.75 L 209.683594 14.085938 L 205.351562 15.878906 L 201.476562 12.003906 Z M 242.371094 5.875 L 248.5 5.875 L 248.5 12.003906 L 244.628906 15.878906 L 240.296875 14.085938 L 238.5 9.75 Z M 260.300781 5.875 L 266.429688 5.875 L 270.304688 9.75 L 268.507812 14.085938 L 264.175781 15.878906 L 260.304688 12.003906 Z M 301.199219 5.875 L 307.328125 5.875 L 307.328125 12.003906 L 303.453125 15.878906 L 299.121094 14.085938 L 297.328125 9.75 Z M 319.128906 5.875 L 325.257812 5.875 L 329.128906 9.75 L 327.335938 14.085938 L 323.003906 15.878906 L 319.128906 12.003906 Z M 360.023438 5.875 L 366.152344 5.875 L 366.152344 12.003906 L 362.28125 15.878906 L 357.949219 14.085938 L 356.152344 9.75 Z M 77.921875 8.320312 L 82.257812 12.65625 L 82.257812 18.132812 L 77.921875 19.925781 L 73.589844 18.132812 L 73.589844 12.65625 Z M 136.75 8.320312 L 141.082031 12.65625 L 141.082031 18.132812 L 136.75 19.925781 L 132.414062 18.132812 L 132.414062 12.65625 Z M 195.574219 8.320312 L 199.90625 12.65625 L 199.90625 18.132812 L 195.574219 19.925781 L 191.242188 18.132812 L 191.242188 12.65625 Z M 254.402344 8.320312 L 258.734375 12.65625 L 258.734375 18.132812 L 254.402344 19.925781 L 250.066406 18.132812 L 250.066406 12.65625 Z M 313.226562 8.320312 L 317.5625 12.65625 L 317.5625 18.132812 L 313.226562 19.925781 L 308.894531 18.132812 L 308.894531 12.65625 Z M 372.054688 8.320312 L 376.386719 12.65625 L 376.386719 18.132812 L 372.054688 19.925781 L 367.71875 18.132812 L 367.71875 12.65625 Z M 107.335938 9.441406 L 111.671875 11.238281 L 111.671875 16.714844 L 107.335938 21.046875 L 103.003906 16.710938 L 103.003906 11.238281 Z M 166.164062 9.441406 L 170.496094 11.238281 L 170.496094 16.714844 L 166.164062 21.046875 L 161.828125 16.710938 L 161.828125 11.238281 Z M 224.988281 9.441406 L 229.324219 11.238281 L 229.324219 16.714844 L 224.988281 21.046875 L 220.65625 16.710938 L 220.65625 11.238281 Z M 283.816406 9.441406 L 288.148438 11.238281 L 288.148438 16.714844 L 283.816406 21.046875 L 279.480469 16.710938 L 279.480469 11.238281 Z M 342.640625 9.441406 L 346.972656 11.238281 L 346.972656 16.714844 L 342.640625 21.046875 L 338.304688 16.710938 L 338.304688 11.238281 Z M 97.5625 13.488281 L 101.4375 17.363281 L 101.4375 23.492188 L 95.308594 23.492188 L 91.433594 19.617188 L 93.226562 15.285156 Z M 117.109375 13.488281 L 121.441406 15.28125 L 121.441406 15.285156 L 123.238281 19.617188 L 119.363281 23.492188 L 113.234375 23.492188 L 113.234375 17.363281 Z M 156.390625 13.488281 L 160.261719 17.363281 L 160.261719 23.492188 L 154.136719 23.492188 L 150.261719 19.617188 L 152.054688 15.285156 Z M 175.9375 13.488281 L 180.269531 15.28125 L 180.269531 15.285156 L 182.0625 19.617188 L 178.191406 23.492188 L 172.0625 23.492188 L 172.0625 17.363281 Z M 215.214844 13.488281 L 219.089844 17.363281 L 219.089844 23.492188 L 212.960938 23.492188 L 209.085938 19.617188 L 210.878906 15.285156 Z M 234.761719 13.488281 L 239.09375 15.28125 L 239.09375 15.285156 L 240.890625 19.617188 L 237.015625 23.492188 L 230.886719 23.492188 L 230.886719 17.363281 Z M 274.039062 13.488281 L 277.914062 17.363281 L 277.914062 23.492188 L 271.785156 23.492188 L 267.914062 19.617188 L 269.707031 15.285156 Z M 293.589844 13.488281 L 297.921875 15.28125 L 297.921875 15.285156 L 299.714844 19.617188 L 295.839844 23.492188 L 289.714844 23.492188 L 289.714844 17.363281 Z M 332.867188 13.488281 L 336.742188 17.363281 L 336.742188 23.492188 L 330.613281 23.492188 L 326.738281 19.617188 L 328.53125 15.285156 Z M 352.414062 13.488281 L 356.746094 15.28125 L 356.746094 15.285156 L 358.542969 19.617188 L 354.667969 23.492188 L 348.539062 23.492188 L 348.539062 17.363281 Z M 130.851562 14.222656 L 130.851562 19.179688 L 134.703125 20.777344 L 130.058594 22.699219 L 128.136719 27.347656 L 126.539062 23.492188 L 121.582031 23.492188 L 125.085938 19.984375 L 123.492188 16.132812 L 127.34375 17.726562 Z M 189.675781 14.222656 L 189.675781 19.179688 L 193.53125 20.777344 L 188.886719 22.699219 L 186.960938 27.347656 L 185.363281 23.492188 L 180.40625 23.492188 L 183.914062 19.984375 L 182.316406 16.132812 L 186.171875 17.726562 Z M 248.5 14.222656 L 248.5 19.179688 L 252.355469 20.777344 L 247.710938 22.699219 L 245.789062 27.347656 L 244.191406 23.492188 L 239.234375 23.492188 L 242.738281 19.984375 L 241.144531 16.132812 L 244.996094 17.726562 Z M 307.328125 14.222656 L 307.328125 19.179688 L 311.183594 20.777344 L 306.539062 22.699219 L 304.613281 27.347656 L 303.015625 23.492188 L 298.058594 23.492188 L 301.566406 19.984375 L 299.96875 16.132812 L 303.824219 17.726562 Z M 366.152344 14.222656 L 366.152344 19.179688 L 370.007812 20.777344 L 365.363281 22.699219 L 363.441406 27.347656 L 361.84375 23.492188 L 356.886719 23.492188 L 360.390625 19.984375 L 358.796875 16.132812 L 362.648438 17.726562 Z M 83.824219 14.222656 L 87.328125 17.726562 L 91.183594 16.132812 L 89.585938 19.984375 L 93.09375 23.492188 L 88.132812 23.492188 L 86.539062 27.34375 L 84.613281 22.699219 L 79.972656 20.777344 L 83.824219 19.179688 Z M 142.648438 14.222656 L 146.15625 17.726562 L 150.007812 16.132812 L 148.414062 19.984375 L 151.917969 23.492188 L 146.960938 23.492188 L 145.363281 27.34375 L 143.441406 22.699219 L 138.796875 20.777344 L 142.648438 19.179688 Z M 201.476562 14.222656 L 204.980469 17.726562 L 208.835938 16.132812 L 207.238281 19.984375 L 210.746094 23.492188 L 205.785156 23.492188 L 204.191406 27.34375 L 202.265625 22.699219 L 197.625 20.777344 L 201.476562 19.179688 Z M 260.300781 14.222656 L 263.808594 17.726562 L 267.660156 16.132812 L 266.066406 19.984375 L 269.570312 23.492188 L 264.613281 23.492188 L 263.015625 27.34375 L 261.09375 22.699219 L 256.449219 20.777344 L 260.300781 19.179688 Z M 319.128906 14.222656 L 322.632812 17.726562 L 326.484375 16.132812 L 324.890625 19.984375 L 328.398438 23.492188 L 323.4375 23.492188 L 321.84375 27.34375 L 319.917969 22.699219 L 315.277344 20.777344 L 319.128906 19.179688 Z M 103.003906 18.929688 L 107.335938 23.261719 L 111.671875 18.929688 L 111.671875 25.058594 L 117.800781 25.058594 L 113.464844 29.390625 L 117.800781 33.726562 L 111.671875 33.726562 L 111.671875 39.855469 L 107.335938 35.519531 L 103.003906 39.855469 L 103.003906 33.726562 L 96.875 33.726562 L 101.207031 29.390625 L 96.875 25.058594 L 103.003906 25.058594 Z M 161.828125 18.929688 L 166.164062 23.261719 L 170.496094 18.929688 L 170.496094 25.058594 L 176.625 25.058594 L 172.292969 29.390625 L 176.625 33.726562 L 170.496094 33.726562 L 170.496094 39.855469 L 166.164062 35.519531 L 161.828125 39.855469 L 161.828125 33.726562 L 155.699219 33.726562 L 160.035156 29.390625 L 155.699219 25.058594 L 161.828125 25.058594 Z M 220.65625 18.929688 L 224.988281 23.261719 L 229.324219 18.929688 L 229.324219 25.058594 L 235.453125 25.058594 L 231.117188 29.390625 L 235.453125 33.726562 L 229.324219 33.726562 L 229.324219 39.855469 L 224.988281 35.519531 L 220.65625 39.855469 L 220.65625 33.726562 L 214.527344 33.726562 L 218.859375 29.390625 L 214.527344 25.058594 L 220.65625 25.058594 Z M 279.480469 18.929688 L 283.816406 23.261719 L 288.148438 18.929688 L 288.148438 25.058594 L 294.277344 25.058594 L 289.945312 29.390625 L 294.277344 33.726562 L 288.148438 33.726562 L 288.148438 39.855469 L 283.8125 35.519531 L 279.480469 39.855469 L 279.480469 33.726562 L 273.351562 33.726562 L 277.6875 29.390625 L 273.351562 25.058594 L 279.480469 25.058594 Z M 338.308594 18.929688 L 342.640625 23.261719 L 346.976562 18.929688 L 346.976562 25.058594 L 353.101562 25.058594 L 348.769531 29.390625 L 353.105469 33.726562 L 346.976562 33.726562 L 346.976562 39.855469 L 342.640625 35.519531 L 338.308594 39.855469 L 338.308594 33.726562 L 332.179688 33.726562 L 336.511719 29.390625 L 332.179688 25.058594 L 338.308594 25.058594 Z M 77.925781 21.625 L 83.417969 23.898438 L 85.6875 29.390625 L 83.417969 34.878906 L 77.925781 37.15625 L 77.925781 37.152344 L 72.433594 34.878906 L 70.160156 29.390625 L 72.433594 23.898438 L 77.921875 21.625 Z M 136.753906 21.625 L 142.242188 23.898438 L 144.515625 29.390625 L 142.242188 34.878906 L 136.75 37.15625 L 136.75 37.152344 L 131.261719 34.878906 L 128.984375 29.390625 L 131.261719 23.898438 L 136.75 21.625 Z M 313.230469 21.625 L 318.71875 23.898438 L 320.992188 29.390625 L 318.71875 34.878906 L 313.230469 37.15625 L 313.230469 37.152344 L 307.738281 34.878906 L 305.464844 29.390625 L 307.738281 23.898438 L 313.226562 21.625 Z M 372.058594 21.625 L 377.546875 23.898438 L 379.820312 29.390625 L 377.546875 34.878906 L 372.054688 37.15625 L 372.054688 37.152344 L 366.566406 34.878906 L 364.289062 29.390625 L 366.566406 23.898438 L 372.054688 21.625 Z M 195.582031 21.628906 L 201.074219 23.90625 L 203.347656 29.394531 L 201.074219 34.886719 L 195.582031 37.160156 L 190.09375 34.886719 L 187.820312 29.394531 L 190.09375 23.902344 Z M 254.40625 21.628906 L 259.898438 23.90625 L 262.171875 29.394531 L 259.898438 34.886719 L 254.410156 37.160156 L 248.917969 34.886719 L 246.644531 29.394531 L 248.917969 23.902344 Z M 89.179688 25.058594 L 94.660156 25.058594 L 98.992188 29.390625 L 94.65625 33.726562 L 89.179688 33.726562 L 87.386719 29.390625 Z M 120.015625 25.058594 L 125.492188 25.058594 L 127.285156 29.390625 L 125.492188 33.726562 L 120.015625 33.726562 L 115.679688 29.390625 Z M 148.007812 25.058594 L 153.484375 25.058594 L 157.816406 29.390625 L 153.484375 33.726562 L 148.007812 33.726562 L 146.210938 29.390625 Z M 178.839844 25.058594 L 184.316406 25.058594 L 186.113281 29.390625 L 184.316406 33.726562 L 178.84375 33.726562 L 174.507812 29.390625 Z M 206.832031 25.058594 L 212.3125 25.058594 L 216.644531 29.390625 L 212.308594 33.726562 L 206.832031 33.726562 L 205.039062 29.390625 Z M 237.667969 25.058594 L 243.144531 25.058594 L 244.9375 29.390625 L 243.144531 33.726562 L 237.667969 33.726562 L 233.332031 29.390625 Z M 265.660156 25.058594 L 271.136719 25.058594 L 275.46875 29.390625 L 271.136719 33.726562 L 265.660156 33.726562 L 263.863281 29.390625 Z M 296.492188 25.058594 L 301.96875 25.058594 L 303.765625 29.390625 L 301.96875 33.726562 L 296.492188 33.726562 L 292.160156 29.390625 Z M 324.484375 25.058594 L 329.964844 25.058594 L 334.296875 29.390625 L 329.960938 33.726562 L 324.484375 33.726562 L 322.691406 29.390625 Z M 355.320312 25.058594 L 360.796875 25.058594 L 362.589844 29.390625 L 360.796875 33.726562 L 355.320312 33.726562 L 350.984375 29.390625 Z M 86.535156 31.433594 L 88.132812 35.289062 L 93.09375 35.289062 L 89.585938 38.796875 L 91.183594 42.652344 L 87.328125 41.054688 L 83.824219 44.558594 L 83.824219 39.597656 L 79.96875 38 L 84.613281 36.078125 Z M 128.136719 31.433594 L 130.058594 36.078125 L 134.710938 38.003906 L 130.847656 39.601562 L 130.847656 44.5625 L 127.34375 41.058594 L 123.488281 42.652344 L 125.085938 38.796875 L 121.582031 35.292969 L 126.539062 35.292969 Z M 145.363281 31.433594 L 146.960938 35.289062 L 151.917969 35.289062 L 148.414062 38.796875 L 150.011719 42.652344 L 146.15625 41.054688 L 142.648438 44.558594 L 142.648438 39.597656 L 138.792969 38 L 143.441406 36.078125 Z M 186.964844 31.433594 L 188.886719 36.078125 L 193.535156 38.003906 L 189.675781 39.601562 L 189.675781 44.5625 L 186.167969 41.058594 L 182.316406 42.652344 L 183.914062 38.796875 L 180.40625 35.292969 L 185.363281 35.292969 Z M 204.1875 31.433594 L 205.785156 35.289062 L 210.742188 35.289062 L 207.238281 38.796875 L 208.835938 42.652344 L 204.980469 41.054688 L 201.476562 44.558594 L 201.476562 39.597656 L 197.621094 38 L 202.265625 36.078125 Z M 245.789062 31.433594 L 247.710938 36.078125 L 252.363281 38.003906 L 248.5 39.601562 L 248.5 44.5625 L 244.996094 41.058594 L 241.140625 42.652344 L 242.738281 38.796875 L 239.234375 35.292969 L 244.191406 35.292969 Z M 263.015625 31.433594 L 264.613281 35.289062 L 269.570312 35.289062 L 266.066406 38.796875 L 267.664062 42.652344 L 263.808594 41.054688 L 260.300781 44.558594 L 260.300781 39.597656 L 256.445312 38 L 261.09375 36.078125 Z M 304.617188 31.433594 L 306.539062 36.078125 L 311.1875 38.003906 L 307.328125 39.601562 L 307.328125 44.5625 L 303.820312 41.058594 L 299.96875 42.652344 L 301.566406 38.796875 L 298.058594 35.292969 L 303.015625 35.292969 Z M 321.839844 31.433594 L 323.4375 35.289062 L 328.394531 35.289062 L 324.890625 38.796875 L 326.488281 42.652344 L 322.632812 41.054688 L 319.128906 44.558594 L 319.128906 39.597656 L 315.273438 38 L 319.917969 36.078125 Z M 363.441406 31.433594 L 365.363281 36.078125 L 370.015625 38.003906 L 366.152344 39.601562 L 366.152344 44.5625 L 362.648438 41.058594 L 358.792969 42.652344 L 360.390625 38.796875 L 356.886719 35.292969 L 361.84375 35.292969 Z M 95.308594 35.289062 L 101.4375 35.289062 L 101.4375 41.417969 L 97.5625 45.292969 L 93.230469 43.496094 L 91.433594 39.164062 Z M 113.238281 35.289062 L 119.367188 35.289062 L 123.238281 39.164062 L 121.445312 43.5 L 117.113281 45.292969 L 113.238281 41.417969 Z M 154.132812 35.289062 L 160.261719 35.289062 L 160.261719 41.417969 L 156.390625 45.292969 L 152.054688 43.496094 L 150.261719 39.164062 Z M 172.0625 35.289062 L 178.191406 35.289062 L 182.066406 39.164062 L 180.269531 43.5 L 175.9375 45.292969 L 172.0625 41.417969 Z M 212.960938 35.289062 L 219.089844 35.289062 L 219.089844 41.417969 L 215.214844 45.292969 L 210.882812 43.496094 L 209.085938 39.164062 Z M 230.886719 35.289062 L 237.019531 35.289062 L 240.890625 39.164062 L 239.097656 43.5 L 234.765625 45.292969 L 230.890625 41.417969 Z M 271.785156 35.289062 L 277.914062 35.289062 L 277.914062 41.417969 L 274.039062 45.292969 L 269.707031 43.496094 L 267.914062 39.164062 Z M 289.714844 35.289062 L 295.84375 35.289062 L 299.71875 39.164062 L 297.921875 43.5 L 293.589844 45.292969 L 289.714844 41.417969 Z M 330.613281 35.289062 L 336.742188 35.289062 L 336.742188 41.417969 L 332.867188 45.292969 L 328.535156 43.496094 L 326.738281 39.164062 Z M 348.539062 35.289062 L 354.667969 35.289062 L 358.542969 39.164062 L 356.75 43.5 L 352.417969 45.292969 L 348.542969 41.417969 Z M 107.335938 37.734375 L 111.671875 42.066406 L 111.671875 47.546875 L 107.335938 49.339844 L 103.003906 47.546875 L 103.003906 42.070312 Z M 166.164062 37.734375 L 170.496094 42.066406 L 170.496094 47.546875 L 166.164062 49.339844 L 161.828125 47.546875 L 161.828125 42.070312 Z M 224.988281 37.734375 L 229.324219 42.066406 L 229.324219 47.546875 L 224.988281 49.339844 L 220.65625 47.546875 L 220.65625 42.070312 Z M 283.816406 37.734375 L 288.148438 42.066406 L 288.148438 47.546875 L 283.816406 49.339844 L 279.480469 47.546875 L 279.480469 42.070312 Z M 342.640625 37.734375 L 346.976562 42.066406 L 346.976562 47.546875 L 342.640625 49.339844 L 338.308594 47.546875 L 338.308594 42.070312 Z M 77.921875 38.847656 L 82.257812 40.644531 L 82.257812 46.125 L 77.921875 50.457031 L 73.589844 46.125 L 73.589844 40.644531 Z M 136.75 38.847656 L 141.082031 40.644531 L 141.082031 46.125 L 136.75 50.457031 L 132.414062 46.125 L 132.414062 40.644531 Z M 313.226562 38.847656 L 317.5625 40.644531 L 317.5625 46.125 L 313.226562 50.457031 L 308.894531 46.125 L 308.894531 40.644531 Z M 372.054688 38.847656 L 376.386719 40.644531 L 376.386719 46.125 L 372.054688 50.457031 L 367.71875 46.125 L 367.71875 40.644531 Z M 195.582031 38.855469 L 199.914062 40.652344 L 199.914062 46.132812 L 195.582031 50.464844 L 191.246094 46.132812 L 191.246094 40.652344 Z M 254.40625 38.855469 L 254.40625 38.859375 L 258.738281 40.652344 L 258.738281 46.132812 L 254.40625 50.464844 L 250.074219 46.132812 L 250.074219 40.652344 Z M 87.695312 42.898438 L 92.03125 44.695312 L 93.828125 49.03125 L 89.953125 52.902344 L 83.820312 52.902344 L 83.820312 46.769531 Z M 126.976562 42.898438 L 130.847656 46.769531 L 130.847656 52.902344 L 124.722656 52.902344 L 120.851562 49.03125 L 122.640625 44.695312 Z M 146.523438 42.898438 L 150.855469 44.695312 L 152.652344 49.03125 L 148.78125 52.902344 L 142.648438 52.902344 L 142.648438 46.769531 Z M 185.800781 42.898438 L 189.675781 46.769531 L 189.675781 52.902344 L 183.550781 52.902344 L 179.675781 49.03125 L 181.464844 44.695312 Z M 205.347656 42.898438 L 209.683594 44.695312 L 211.480469 49.03125 L 207.605469 52.902344 L 201.472656 52.902344 L 201.472656 46.769531 Z M 244.628906 42.898438 L 248.5 46.769531 L 248.5 52.902344 L 242.375 52.902344 L 238.503906 49.03125 L 240.292969 44.695312 Z M 264.175781 42.898438 L 268.507812 44.695312 L 270.304688 49.03125 L 266.433594 52.902344 L 260.300781 52.902344 L 260.300781 46.769531 Z M 303.453125 42.898438 L 307.328125 46.769531 L 307.328125 52.902344 L 301.203125 52.902344 L 297.328125 49.03125 L 299.117188 44.695312 Z M 323 42.898438 L 327.335938 44.695312 L 329.132812 49.03125 L 325.257812 52.902344 L 319.125 52.902344 L 319.125 46.769531 Z M 362.28125 42.898438 L 366.152344 46.769531 L 366.152344 52.902344 L 360.027344 52.902344 L 356.152344 49.03125 L 357.945312 44.695312 Z M 113.234375 43.632812 L 116.742188 47.140625 L 120.59375 45.542969 L 119 49.398438 L 122.503906 52.902344 L 117.550781 52.902344 L 115.953125 56.757812 L 114.027344 52.109375 L 109.382812 50.1875 L 113.234375 48.589844 Z M 172.0625 43.632812 L 175.566406 47.140625 L 179.421875 45.542969 L 177.824219 49.398438 L 181.332031 52.902344 L 176.375 52.902344 L 174.777344 56.757812 L 172.855469 52.109375 L 168.210938 50.1875 L 172.0625 48.589844 Z M 230.886719 43.632812 L 234.394531 47.140625 L 238.246094 45.542969 L 236.652344 49.398438 L 240.15625 52.902344 L 235.199219 52.902344 L 233.605469 56.757812 L 231.679688 52.109375 L 227.035156 50.1875 L 230.886719 48.589844 Z M 289.714844 43.632812 L 293.21875 47.140625 L 297.074219 45.542969 L 295.476562 49.398438 L 298.984375 52.902344 L 294.027344 52.902344 L 292.429688 56.757812 L 290.507812 52.109375 L 285.863281 50.1875 L 289.714844 48.589844 Z M 348.539062 43.632812 L 352.046875 47.140625 L 355.898438 45.542969 L 354.304688 49.398438 L 357.808594 52.902344 L 352.851562 52.902344 L 351.257812 56.757812 L 349.332031 52.109375 L 344.6875 50.1875 L 348.539062 48.589844 Z M 101.4375 43.632812 L 101.4375 48.589844 L 105.292969 50.1875 L 100.648438 52.109375 L 98.71875 56.761719 L 97.121094 52.902344 L 92.167969 52.902344 L 95.671875 49.398438 L 94.078125 45.542969 L 97.929688 47.140625 Z M 160.261719 43.632812 L 160.261719 48.589844 L 164.117188 50.1875 L 159.472656 52.109375 L 157.546875 56.761719 L 155.949219 52.902344 L 150.992188 52.902344 L 154.5 49.398438 L 152.902344 45.542969 L 156.757812 47.140625 Z M 219.089844 43.632812 L 219.089844 48.589844 L 222.945312 50.1875 L 218.300781 52.109375 L 216.371094 56.761719 L 214.773438 52.902344 L 209.820312 52.902344 L 213.324219 49.398438 L 211.726562 45.542969 L 215.582031 47.140625 Z M 277.914062 43.632812 L 277.914062 48.589844 L 281.769531 50.1875 L 277.125 52.109375 L 275.199219 56.761719 L 273.601562 52.902344 L 268.644531 52.902344 L 272.152344 49.398438 L 270.554688 45.542969 L 274.410156 47.140625 Z M 336.742188 43.632812 L 336.742188 48.589844 L 340.597656 50.1875 L 335.949219 52.109375 L 334.023438 56.761719 L 332.425781 52.902344 L 327.472656 52.902344 L 330.976562 49.398438 L 329.378906 45.542969 L 333.234375 47.140625 Z M 350.390625 58.8125 L 348.125 64.285156 L 342.632812 66.558594 L 337.144531 64.285156 L 334.878906 58.816406 L 333.179688 58.816406 L 331.386719 63.148438 L 325.910156 63.148438 L 321.574219 58.816406 L 319.359375 58.816406 L 323.691406 63.148438 L 317.5625 63.148438 L 317.5625 69.277344 L 313.230469 64.945312 L 308.898438 69.277344 L 308.898438 63.148438 L 302.765625 63.148438 L 307.101562 58.816406 L 304.886719 58.816406 L 300.550781 63.148438 L 295.074219 63.148438 L 293.28125 58.816406 L 291.566406 58.816406 L 289.296875 64.285156 L 283.804688 66.5625 L 278.316406 64.285156 L 276.050781 58.820312 L 274.355469 58.820312 L 272.558594 63.152344 L 267.082031 63.152344 L 262.75 58.820312 L 260.535156 58.820312 L 264.867188 63.152344 L 258.738281 63.152344 L 258.738281 68.691406 C 259.257812 68.84375 259.78125 68.996094 260.304688 69.144531 L 260.304688 64.703125 L 266.433594 64.703125 L 270.304688 68.578125 L 269.042969 71.625 C 269.550781 71.769531 270.054688 71.910156 270.5625 72.054688 L 272.152344 68.210938 L 268.648438 64.703125 L 273.605469 64.703125 L 275.203125 60.851562 L 277.117188 65.472656 L 281.792969 67.410156 L 277.917969 69.015625 L 277.917969 73.972656 L 274.410156 70.46875 L 270.570312 72.058594 C 271.378906 72.289062 272.183594 72.519531 272.984375 72.753906 L 274.042969 72.316406 L 275.101562 73.375 C 276.574219 73.8125 278.035156 74.261719 279.480469 74.722656 L 279.480469 70.0625 L 283.816406 68.265625 L 288.148438 70.0625 L 288.148438 75.539062 L 286.542969 77.144531 C 287.082031 77.347656 287.621094 77.546875 288.148438 77.753906 C 288.675781 77.960938 289.195312 78.167969 289.714844 78.382812 L 289.714844 76.1875 L 293.589844 72.316406 L 297.921875 74.109375 L 299.71875 78.441406 L 296.59375 81.566406 C 297.980469 82.296875 299.324219 83.066406 300.609375 83.882812 L 301.972656 83.882812 L 302.496094 85.144531 C 303.617188 85.933594 304.6875 86.765625 305.703125 87.636719 L 307.742188 82.722656 L 313.230469 80.449219 L 318.71875 82.722656 L 320.992188 88.214844 L 318.71875 93.707031 L 313.226562 95.980469 L 312.542969 95.695312 C 312.957031 96.402344 313.34375 97.125 313.703125 97.875 L 317.5625 99.472656 L 317.5625 104.953125 L 316.296875 106.214844 C 316.363281 106.609375 316.425781 107.003906 316.476562 107.40625 C 316.476562 107.40625 317.460938 107.085938 319.125 106.695312 L 319.125 105.597656 L 323 101.726562 L 327.332031 103.523438 L 328.097656 105.367188 C 328.640625 105.335938 329.195312 105.308594 329.761719 105.292969 L 329.378906 104.371094 L 331.5625 105.273438 C 332.3125 105.28125 333.078125 105.304688 333.851562 105.347656 L 336.738281 102.460938 L 336.738281 105.621094 C 337.257812 105.6875 337.78125 105.769531 338.304688 105.859375 L 338.304688 100.894531 L 342.640625 96.558594 L 346.972656 100.894531 L 346.972656 106.371094 L 344.34375 107.460938 C 345.03125 107.714844 345.714844 107.996094 346.390625 108.308594 L 348.539062 107.417969 L 348.539062 102.460938 L 352.042969 105.964844 L 355.898438 104.371094 L 354.300781 108.226562 L 357.808594 111.730469 L 352.851562 111.730469 L 352.644531 112.234375 C 353.066406 112.585938 353.480469 112.957031 353.890625 113.339844 L 353.894531 113.324219 L 359.367188 113.324219 L 363.691406 117.648438 L 359.894531 121.445312 C 360.238281 122.113281 360.566406 122.808594 360.882812 123.53125 L 366.152344 123.53125 L 366.152344 127.472656 C 366.667969 127.425781 367.191406 127.394531 367.71875 127.378906 L 367.71875 121.964844 L 361.589844 121.964844 L 365.894531 117.660156 L 365.921875 117.660156 L 365.90625 117.648438 L 365.921875 117.632812 L 365.890625 117.632812 L 361.585938 113.324219 L 367.710938 113.324219 L 367.710938 107.195312 L 372.046875 111.527344 L 376.382812 107.195312 L 376.382812 113.328125 L 382.515625 113.328125 L 378.210938 117.632812 L 378.179688 117.632812 L 378.195312 117.644531 L 378.179688 117.660156 L 378.210938 117.660156 L 382.515625 121.964844 L 376.382812 121.964844 L 376.382812 128.09375 L 372.050781 123.761719 L 368.449219 127.363281 C 369.160156 127.355469 369.882812 127.371094 370.609375 127.417969 L 372.050781 125.976562 L 373.890625 127.8125 C 375.265625 128.066406 376.628906 128.429688 377.953125 128.921875 L 377.953125 123.53125 L 384.082031 123.53125 L 387.113281 126.5625 L 387.113281 124.34375 L 386.296875 123.53125 L 387.113281 123.53125 L 387.113281 121.964844 L 384.730469 121.964844 L 380.410156 117.644531 L 384.726562 113.328125 L 387.113281 113.328125 L 387.113281 111.730469 L 386.296875 111.730469 L 387.113281 110.914062 L 387.113281 108.699219 L 384.085938 111.730469 L 377.953125 111.730469 L 377.953125 105.597656 L 381.824219 101.726562 L 386.160156 103.523438 L 387.113281 105.820312 L 387.113281 101.730469 L 385.5625 97.988281 L 387.113281 96.441406 L 387.113281 94.222656 L 383.714844 97.621094 L 385.3125 101.476562 L 381.457031 99.878906 L 377.953125 103.386719 L 377.953125 98.425781 L 374.097656 96.828125 L 378.746094 94.902344 L 380.667969 90.261719 L 382.265625 94.113281 L 387.113281 94.113281 L 387.113281 92.550781 L 383.3125 92.550781 L 381.515625 88.21875 L 383.3125 83.882812 L 387.113281 83.882812 L 387.113281 82.316406 L 382.265625 82.316406 L 380.667969 86.171875 L 378.746094 81.523438 L 374.101562 79.601562 L 377.953125 78.003906 L 377.953125 73.046875 L 381.457031 76.554688 L 385.3125 74.957031 L 383.714844 78.8125 L 387.113281 82.210938 L 387.113281 79.992188 L 385.5625 78.445312 L 387.113281 74.699219 L 387.113281 70.609375 L 386.160156 72.910156 L 381.828125 74.703125 L 377.957031 70.828125 L 377.957031 64.703125 L 384.085938 64.703125 L 387.117188 67.734375 L 387.117188 65.515625 L 386.300781 64.703125 L 387.117188 64.703125 L 387.117188 63.148438 L 384.738281 63.148438 L 380.402344 58.8125 L 378.1875 58.8125 L 382.519531 63.148438 L 376.390625 63.148438 L 376.390625 69.277344 L 372.058594 64.941406 L 367.726562 69.277344 L 367.726562 63.148438 L 361.59375 63.148438 L 365.929688 58.8125 L 363.714844 58.8125 L 359.378906 63.148438 L 353.902344 63.148438 L 352.109375 58.8125 Z M 234.367188 58.820312 C 234.40625 58.847656 234.445312 58.875 234.484375 58.898438 L 234.453125 58.820312 Z M 246.058594 58.820312 L 242.007812 62.871094 C 243.460938 63.511719 244.96875 64.121094 246.519531 64.703125 L 248.5 64.703125 L 248.5 65.433594 C 249.019531 65.617188 249.542969 65.796875 250.070312 65.976562 L 250.070312 63.15625 L 243.941406 63.15625 L 248.273438 58.820312 Z M 173.914062 58.820312 L 171.644531 64.289062 L 166.15625 66.566406 L 160.664062 64.289062 L 158.398438 58.824219 L 156.703125 58.824219 L 154.90625 63.15625 L 149.429688 63.15625 L 145.097656 58.824219 L 142.882812 58.824219 L 147.214844 63.15625 L 141.082031 63.15625 L 141.082031 69.285156 L 136.75 64.953125 L 136.746094 64.953125 L 132.414062 69.285156 L 132.414062 63.15625 L 126.285156 63.15625 L 130.617188 58.824219 L 128.402344 58.824219 L 124.070312 63.15625 L 118.59375 63.15625 L 116.796875 58.824219 L 115.082031 58.824219 L 112.816406 64.292969 L 107.324219 66.566406 L 101.832031 64.292969 L 99.566406 58.824219 L 97.871094 58.824219 L 96.074219 63.15625 L 90.597656 63.15625 L 86.265625 58.824219 L 84.050781 58.824219 L 88.382812 63.15625 L 82.253906 63.15625 L 82.253906 69.285156 L 77.921875 64.953125 L 73.585938 69.285156 L 73.585938 63.160156 L 67.457031 63.160156 L 71.792969 58.824219 L 69.574219 58.824219 L 65.242188 63.160156 L 62.863281 63.160156 L 62.863281 64.703125 L 63.679688 64.703125 L 62.863281 65.519531 L 62.863281 67.734375 L 65.894531 64.703125 L 72.023438 64.703125 L 72.023438 70.832031 L 68.148438 74.707031 L 63.816406 72.914062 L 62.863281 70.609375 L 62.863281 74.703125 L 64.410156 78.441406 L 62.863281 79.992188 L 62.863281 82.210938 L 66.261719 78.8125 L 64.664062 74.960938 L 68.515625 76.554688 L 72.023438 73.046875 L 72.023438 78.007812 L 75.878906 79.601562 L 71.234375 81.527344 L 69.308594 86.171875 L 67.710938 82.320312 L 62.863281 82.320312 L 62.863281 83.882812 L 66.664062 83.882812 L 68.460938 88.21875 L 66.664062 92.550781 L 62.863281 92.550781 L 62.863281 94.117188 L 67.710938 94.117188 L 69.308594 90.261719 L 71.234375 94.90625 L 75.882812 96.832031 L 72.023438 98.425781 L 72.023438 103.390625 L 68.515625 99.882812 L 64.664062 101.480469 L 66.261719 97.625 L 62.863281 94.226562 L 62.863281 96.441406 L 64.414062 97.992188 L 62.863281 101.730469 L 62.863281 105.824219 L 63.8125 103.523438 L 63.820312 103.523438 L 68.148438 101.726562 L 72.019531 105.597656 L 72.019531 111.730469 L 65.894531 111.730469 L 62.863281 108.699219 L 62.863281 110.917969 L 63.675781 111.730469 L 62.863281 111.730469 L 62.863281 113.324219 L 65.238281 113.324219 L 69.566406 117.652344 L 65.242188 121.976562 L 62.863281 121.976562 L 62.863281 123.53125 L 63.675781 123.53125 L 62.863281 124.347656 L 62.863281 126.5625 L 65.894531 123.53125 L 72.023438 123.53125 L 72.023438 128.988281 C 73.332031 128.484375 74.683594 128.113281 76.042969 127.851562 L 77.921875 125.976562 L 79.371094 127.429688 C 80.09375 127.378906 80.804688 127.359375 81.511719 127.359375 L 77.921875 123.769531 L 73.589844 128.105469 L 73.589844 121.976562 L 67.460938 121.976562 L 71.777344 117.65625 L 71.789062 117.65625 L 71.785156 117.648438 L 71.792969 117.640625 L 71.777344 117.640625 L 67.457031 113.324219 L 73.582031 113.324219 L 73.582031 107.1875 L 77.917969 111.523438 L 82.253906 107.191406 L 82.253906 113.320312 L 88.386719 113.320312 L 84.066406 117.640625 L 84.054688 117.640625 L 84.058594 117.648438 L 84.050781 117.65625 L 84.066406 117.65625 L 88.386719 121.976562 L 82.257812 121.976562 L 82.257812 127.375 C 82.785156 127.390625 83.308594 127.417969 83.824219 127.460938 L 83.824219 123.53125 L 89.257812 123.53125 C 89.554688 122.851562 89.867188 122.195312 90.191406 121.5625 L 86.273438 117.648438 L 90.597656 113.320312 L 96.078125 113.320312 L 96.132812 113.457031 C 96.539062 113.066406 96.953125 112.695312 97.375 112.339844 L 97.125 111.734375 L 92.167969 111.734375 L 95.675781 108.226562 L 94.078125 104.371094 L 97.933594 105.96875 L 101.4375 102.460938 L 101.4375 107.421875 L 103.671875 108.34375 C 104.347656 108.035156 105.027344 107.75 105.714844 107.496094 L 103.003906 106.371094 L 103.003906 100.898438 L 107.339844 96.5625 L 111.671875 100.894531 L 111.671875 105.890625 C 112.195312 105.796875 112.71875 105.714844 113.238281 105.644531 L 113.238281 102.460938 L 116.136719 105.363281 C 116.90625 105.3125 117.664062 105.285156 118.410156 105.277344 L 120.597656 104.371094 L 120.214844 105.289062 C 120.78125 105.304688 121.339844 105.328125 121.882812 105.359375 L 122.640625 103.527344 L 126.976562 101.726562 L 130.851562 105.601562 L 130.851562 106.65625 C 132.613281 107.066406 133.664062 107.410156 133.664062 107.410156 C 133.710938 107.054688 133.761719 106.703125 133.820312 106.355469 L 132.414062 104.953125 L 132.414062 99.472656 L 136.480469 97.789062 C 136.84375 97.039062 137.234375 96.3125 137.652344 95.609375 L 136.75 95.984375 L 136.75 95.980469 L 131.261719 93.707031 L 128.988281 88.21875 L 131.261719 82.726562 L 136.75 80.453125 L 142.242188 82.726562 L 144.316406 87.746094 C 145.300781 86.894531 146.332031 86.082031 147.414062 85.3125 L 148.007812 83.886719 L 149.535156 83.886719 C 150.785156 83.089844 152.089844 82.339844 153.4375 81.625 L 150.257812 78.445312 L 152.050781 74.113281 L 156.386719 72.320312 L 160.261719 76.191406 L 160.261719 78.453125 C 160.78125 78.242188 161.300781 78.03125 161.828125 77.824219 L 161.828125 77.757812 L 161.875 77.804688 C 162.40625 77.597656 162.941406 77.394531 163.480469 77.195312 L 161.828125 75.542969 L 161.828125 70.066406 L 166.160156 68.269531 L 170.496094 70.066406 L 170.496094 74.777344 C 171.921875 74.324219 173.359375 73.882812 174.804688 73.449219 L 175.933594 72.320312 L 177.058594 72.785156 C 178.355469 72.40625 179.652344 72.039062 180.953125 71.671875 L 179.671875 68.582031 L 183.546875 64.707031 L 189.675781 64.707031 L 189.675781 69.195312 C 190.199219 69.046875 190.722656 68.894531 191.242188 68.742188 L 191.242188 63.160156 L 185.113281 63.160156 L 189.445312 58.824219 L 187.230469 58.824219 L 182.898438 63.160156 L 177.421875 63.160156 L 175.625 58.824219 Z M 201.707031 58.820312 L 206.039062 63.15625 L 199.910156 63.15625 L 199.910156 66.03125 C 200.4375 65.851562 200.957031 65.671875 201.476562 65.488281 L 201.476562 64.703125 L 203.621094 64.703125 C 205.132812 64.132812 206.601562 63.542969 208.019531 62.917969 L 203.921875 58.820312 Z M 215.527344 58.820312 L 215.441406 59.035156 C 215.550781 58.964844 215.664062 58.890625 215.773438 58.820312 Z M 115.941406 60.828125 L 117.546875 64.703125 L 122.503906 64.703125 L 119 68.210938 L 120.597656 72.066406 L 116.742188 70.46875 L 113.234375 73.972656 L 113.234375 69.015625 L 109.351562 67.40625 L 114.015625 65.472656 Z M 174.765625 60.828125 L 176.375 64.703125 L 181.332031 64.703125 L 177.824219 68.210938 L 179.421875 72.066406 L 175.566406 70.46875 L 172.0625 73.972656 L 172.0625 69.015625 L 168.175781 67.40625 L 172.84375 65.472656 Z M 292.417969 60.828125 L 294.027344 64.703125 L 298.984375 64.703125 L 295.476562 68.210938 L 297.074219 72.066406 L 293.21875 70.46875 L 289.714844 73.972656 L 289.714844 69.015625 L 285.828125 67.40625 L 290.496094 65.472656 Z M 351.246094 60.828125 L 352.851562 64.703125 L 357.808594 64.703125 L 354.304688 68.210938 L 355.898438 72.066406 L 352.046875 70.46875 L 348.539062 73.972656 L 348.539062 69.015625 L 344.65625 67.40625 L 349.320312 65.472656 Z M 98.722656 60.851562 L 100.636719 65.472656 L 105.3125 67.410156 L 101.4375 69.015625 L 101.4375 73.972656 L 97.929688 70.46875 L 94.078125 72.0625 L 95.671875 68.210938 L 92.167969 64.703125 L 97.125 64.703125 Z M 157.546875 60.851562 L 159.464844 65.472656 L 164.140625 67.410156 L 160.261719 69.015625 L 160.261719 73.972656 L 156.757812 70.46875 L 152.902344 72.0625 L 154.5 68.210938 L 150.992188 64.703125 L 155.953125 64.703125 Z M 334.027344 60.851562 L 335.941406 65.472656 L 340.617188 67.410156 L 336.742188 69.015625 L 336.742188 73.972656 L 333.234375 70.46875 L 329.382812 72.0625 L 330.976562 68.210938 L 327.472656 64.703125 L 332.429688 64.703125 Z M 83.824219 64.703125 L 89.953125 64.703125 L 93.824219 68.578125 L 92.03125 72.910156 L 87.699219 74.703125 L 83.824219 70.832031 Z M 124.722656 64.703125 L 130.851562 64.703125 L 130.851562 70.832031 L 126.976562 74.707031 L 122.644531 72.914062 L 122.644531 72.910156 L 120.847656 68.578125 Z M 142.648438 64.703125 L 148.777344 64.703125 L 152.652344 68.578125 L 150.855469 72.910156 L 146.523438 74.703125 L 142.652344 70.832031 Z M 301.199219 64.703125 L 307.328125 64.703125 L 307.328125 70.832031 L 303.453125 74.707031 L 299.121094 72.914062 L 299.121094 72.910156 L 297.328125 68.578125 Z M 319.128906 64.703125 L 325.257812 64.703125 L 329.128906 68.578125 L 327.335938 72.910156 L 323.003906 74.703125 L 319.128906 70.832031 Z M 360.023438 64.703125 L 366.152344 64.703125 L 366.152344 70.832031 L 362.28125 74.707031 L 357.949219 72.914062 L 357.949219 72.910156 L 356.152344 68.578125 Z M 254.402344 64.949219 L 252.554688 66.800781 C 253.105469 66.976562 253.660156 67.152344 254.21875 67.328125 L 254.402344 67.148438 L 254.746094 67.492188 C 255.789062 67.816406 256.839844 68.132812 257.902344 68.449219 Z M 195.578125 64.949219 L 192.011719 68.511719 C 193.070312 68.199219 194.117188 67.882812 195.15625 67.5625 L 195.574219 67.148438 L 195.796875 67.367188 C 196.355469 67.191406 196.914062 67.015625 197.464844 66.835938 Z M 77.921875 67.148438 L 82.257812 71.480469 L 82.257812 76.957031 L 77.921875 78.753906 L 77.921875 78.75 L 73.589844 76.957031 L 73.589844 71.480469 Z M 136.75 67.148438 L 141.082031 71.480469 L 141.082031 76.957031 L 136.75 78.753906 L 136.75 78.75 L 132.414062 76.957031 L 132.414062 71.480469 Z M 313.226562 67.148438 L 317.5625 71.480469 L 317.5625 76.957031 L 313.226562 78.753906 L 313.226562 78.75 L 308.894531 76.957031 L 308.894531 71.480469 Z M 372.054688 67.148438 L 376.386719 71.480469 L 376.386719 76.957031 L 372.054688 78.753906 L 372.054688 78.75 L 367.71875 76.957031 L 367.71875 71.480469 Z M 107.335938 68.265625 L 111.671875 70.0625 L 111.671875 75.539062 L 107.335938 79.871094 L 103.003906 75.539062 L 103.003906 70.0625 Z M 342.640625 68.265625 L 346.972656 70.0625 L 346.972656 75.539062 L 342.640625 79.871094 L 338.304688 75.539062 L 338.304688 70.0625 Z M 97.5625 72.3125 L 101.4375 76.1875 L 101.4375 82.316406 L 95.308594 82.316406 L 91.433594 78.441406 L 93.226562 74.109375 Z M 117.109375 72.3125 L 121.441406 74.105469 L 123.238281 78.441406 L 119.363281 82.3125 L 113.234375 82.3125 L 113.234375 76.1875 Z M 332.867188 72.3125 L 336.742188 76.1875 L 336.742188 82.316406 L 330.613281 82.316406 L 326.738281 78.441406 L 328.53125 74.109375 Z M 352.414062 72.3125 L 356.746094 74.105469 L 358.542969 78.441406 L 354.667969 82.3125 L 348.539062 82.3125 L 348.539062 76.1875 Z M 130.851562 73.046875 L 130.851562 78.003906 L 134.703125 79.601562 L 130.058594 81.523438 L 128.136719 86.171875 L 126.539062 82.316406 L 121.582031 82.316406 L 125.085938 78.8125 L 123.492188 74.957031 L 127.34375 76.550781 Z M 307.328125 73.046875 L 307.328125 78.003906 L 311.183594 79.601562 L 306.539062 81.523438 L 304.613281 86.171875 L 303.015625 82.316406 L 298.058594 82.316406 L 301.566406 78.8125 L 299.96875 74.957031 L 303.824219 76.550781 Z M 366.152344 73.046875 L 366.152344 78.003906 L 370.007812 79.601562 L 365.363281 81.523438 L 363.441406 86.171875 L 361.84375 82.316406 L 356.886719 82.316406 L 360.390625 78.8125 L 358.796875 74.957031 L 362.648438 76.550781 Z M 83.824219 73.046875 L 87.328125 76.550781 L 91.179688 74.957031 L 89.585938 78.8125 L 93.09375 82.316406 L 88.132812 82.316406 L 86.539062 86.167969 L 84.613281 81.523438 L 79.972656 79.601562 L 83.824219 78.003906 Z M 142.648438 73.046875 L 146.15625 76.550781 L 150.007812 74.957031 L 148.414062 78.8125 L 151.917969 82.316406 L 146.960938 82.316406 L 145.363281 86.167969 L 143.441406 81.523438 L 138.796875 79.601562 L 142.648438 78.003906 Z M 319.128906 73.046875 L 322.632812 76.550781 L 326.484375 74.957031 L 324.890625 78.8125 L 328.398438 82.316406 L 323.4375 82.316406 L 321.84375 86.167969 L 319.917969 81.523438 L 315.277344 79.601562 L 319.128906 78.003906 Z M 103.003906 77.753906 L 107.335938 82.085938 L 111.671875 77.753906 L 111.671875 83.882812 L 117.796875 83.882812 L 113.464844 88.214844 L 117.800781 92.550781 L 111.671875 92.550781 L 111.671875 98.679688 L 107.335938 94.34375 L 103.003906 98.679688 L 103.003906 92.550781 L 96.875 92.550781 L 101.207031 88.214844 L 96.875 83.882812 L 103.003906 83.882812 Z M 338.304688 77.753906 L 342.640625 82.085938 L 346.972656 77.753906 L 346.972656 83.882812 L 353.101562 83.882812 L 348.769531 88.214844 L 353.105469 92.550781 L 346.972656 92.550781 L 346.972656 98.679688 L 342.640625 94.34375 L 338.304688 98.679688 L 338.304688 92.550781 L 332.175781 92.550781 L 336.511719 88.214844 L 332.179688 83.882812 L 338.304688 83.882812 Z M 77.925781 80.449219 L 83.414062 82.722656 L 85.6875 88.214844 L 83.414062 93.703125 L 77.925781 95.980469 L 77.921875 95.980469 L 72.433594 93.703125 L 70.160156 88.214844 L 72.433594 82.722656 L 77.921875 80.449219 Z M 372.058594 80.449219 L 377.546875 82.722656 L 379.820312 88.214844 L 377.546875 93.703125 L 372.054688 95.980469 L 366.566406 93.703125 L 364.289062 88.214844 L 366.566406 82.722656 L 372.054688 80.449219 Z M 89.179688 83.882812 L 94.65625 83.882812 L 98.992188 88.214844 L 94.65625 92.550781 L 89.179688 92.550781 L 87.386719 88.21875 Z M 120.015625 83.882812 L 125.492188 83.882812 L 127.285156 88.21875 L 125.492188 92.550781 L 120.015625 92.550781 L 115.679688 88.214844 Z M 324.484375 83.882812 L 329.960938 83.882812 L 334.296875 88.214844 L 329.960938 92.550781 L 324.484375 92.550781 L 322.691406 88.21875 Z M 355.320312 83.882812 L 360.796875 83.882812 L 362.589844 88.21875 L 360.796875 92.550781 L 355.320312 92.550781 L 350.984375 88.214844 Z M 86.535156 90.261719 L 88.132812 94.113281 L 93.089844 94.113281 L 89.585938 97.621094 L 91.183594 101.476562 L 87.328125 99.878906 L 83.824219 103.386719 L 83.824219 98.421875 L 79.96875 96.828125 L 84.613281 94.902344 Z M 128.136719 90.261719 L 130.058594 94.902344 L 134.710938 96.828125 L 130.847656 98.425781 L 130.847656 103.386719 L 127.34375 99.882812 L 123.488281 101.476562 L 125.085938 97.621094 L 121.582031 94.117188 L 126.539062 94.117188 Z M 321.839844 90.261719 L 323.4375 94.113281 L 328.394531 94.113281 L 324.890625 97.621094 L 326.488281 101.476562 L 322.632812 99.878906 L 319.128906 103.386719 L 319.128906 98.421875 L 315.269531 96.828125 L 319.917969 94.902344 Z M 363.441406 90.261719 L 365.363281 94.902344 L 370.015625 96.828125 L 366.152344 98.425781 L 366.152344 103.386719 L 362.648438 99.882812 L 358.792969 101.476562 L 360.390625 97.621094 L 356.886719 94.117188 L 361.84375 94.117188 Z M 95.308594 94.113281 L 101.4375 94.113281 L 101.4375 100.242188 L 97.5625 104.117188 L 93.230469 102.324219 L 91.433594 97.988281 Z M 113.234375 94.113281 L 119.363281 94.113281 L 123.238281 97.988281 L 121.445312 102.324219 L 117.113281 104.117188 L 113.238281 100.242188 Z M 330.613281 94.113281 L 336.742188 94.113281 L 336.742188 100.242188 L 332.867188 104.117188 L 328.535156 102.324219 L 326.738281 97.988281 Z M 348.539062 94.113281 L 354.667969 94.113281 L 358.542969 97.988281 L 356.746094 102.324219 L 352.417969 104.117188 L 348.542969 100.242188 Z M 77.921875 97.675781 L 82.257812 99.46875 L 82.257812 104.949219 L 77.921875 109.285156 L 73.585938 104.949219 L 73.585938 99.46875 Z M 372.054688 97.675781 L 376.386719 99.46875 L 376.386719 104.949219 L 372.054688 109.285156 L 367.71875 104.949219 L 367.71875 99.46875 Z M 87.695312 101.722656 L 92.03125 103.519531 L 93.828125 107.855469 L 89.953125 111.726562 L 83.820312 111.726562 L 83.820312 105.59375 Z M 362.28125 101.722656 L 366.152344 105.597656 L 366.152344 111.730469 L 360.027344 111.730469 L 356.152344 107.855469 L 357.945312 103.523438 Z M 62.863281 129.433594 L 62.863281 133.527344 L 63.601562 135.316406 C 63.957031 134.824219 64.332031 134.363281 64.722656 133.925781 L 64.664062 133.785156 L 64.800781 133.839844 C 65.183594 133.414062 65.582031 133.015625 65.996094 132.640625 L 63.816406 131.738281 Z M 387.113281 129.433594 L 386.160156 131.734375 L 384.09375 132.589844 C 384.511719 132.964844 384.910156 133.363281 385.296875 133.789062 L 385.3125 133.78125 L 385.304688 133.796875 C 385.699219 134.226562 386.074219 134.683594 386.433594 135.167969 L 387.113281 133.523438 Z M 387.113281 129.433594 " fill-opacity="1" fill-rule="nonzero"/></g><g clip-path="url(#c82871a67a)"><path fill="#fbc50b" d="M 225.09375 44.804688 C 224.246094 44.800781 223.457031 45.007812 222.726562 45.429688 C 221.992188 45.851562 221.414062 46.429688 220.992188 47.160156 C 217.945312 52.460938 211.710938 56.480469 203.273438 59.800781 C 194.839844 63.121094 184.492188 65.675781 174.226562 68.710938 C 163.957031 71.746094 153.730469 75.242188 145.355469 81.011719 C 138.269531 85.890625 132.582031 92.71875 130.074219 101.710938 C 126.125 100.914062 120.386719 100.144531 113.875 100.832031 C 103.296875 101.945312 90.785156 107.824219 84.597656 122.828125 C 79.582031 122.34375 73.910156 122.832031 68.585938 125.339844 C 66.550781 126.296875 64.609375 127.601562 62.863281 129.234375 L 62.863281 149.976562 C 63.773438 149.160156 64.289062 148.140625 64.402344 146.921875 C 65.140625 139.132812 68.355469 135.847656 72.59375 133.851562 C 76.828125 131.855469 82.515625 131.730469 86.640625 132.605469 C 87.214844 132.726562 87.792969 132.738281 88.371094 132.644531 C 88.953125 132.546875 89.496094 132.351562 90 132.050781 C 90.507812 131.753906 90.941406 131.375 91.304688 130.914062 C 91.667969 130.449219 91.9375 129.9375 92.109375 129.375 C 96.570312 114.789062 105.773438 111.144531 114.859375 110.183594 C 123.949219 109.226562 132.1875 111.875 132.1875 111.875 C 132.515625 111.984375 132.851562 112.054688 133.195312 112.089844 C 133.542969 112.125 133.886719 112.121094 134.230469 112.078125 C 134.574219 112.035156 134.90625 111.957031 135.234375 111.839844 C 135.5625 111.726562 135.871094 111.574219 136.164062 111.390625 C 136.457031 111.207031 136.726562 110.992188 136.972656 110.75 C 137.21875 110.507812 137.433594 110.238281 137.621094 109.945312 C 137.808594 109.65625 137.960938 109.347656 138.082031 109.023438 C 138.199219 108.695312 138.28125 108.363281 138.328125 108.019531 C 139.492188 99.125 143.847656 93.46875 150.691406 88.757812 C 157.535156 84.042969 166.917969 80.683594 176.894531 77.730469 C 186.867188 74.78125 197.398438 72.222656 206.71875 68.554688 C 213.761719 65.78125 220.273438 62.332031 225.070312 57.277344 C 229.867188 62.332031 236.378906 65.78125 243.421875 68.554688 C 252.742188 72.222656 263.273438 74.78125 273.25 77.730469 C 283.226562 80.683594 292.605469 84.042969 299.449219 88.757812 C 306.292969 93.46875 310.652344 99.125 311.816406 108.019531 C 311.859375 108.363281 311.941406 108.695312 312.0625 109.023438 C 312.179688 109.347656 312.332031 109.65625 312.519531 109.945312 C 312.707031 110.238281 312.921875 110.503906 313.167969 110.75 C 313.414062 110.992188 313.683594 111.207031 313.976562 111.390625 C 314.269531 111.574219 314.582031 111.726562 314.90625 111.839844 C 315.234375 111.957031 315.570312 112.035156 315.914062 112.078125 C 316.257812 112.121094 316.601562 112.121094 316.945312 112.089844 C 317.289062 112.054688 317.625 111.984375 317.953125 111.875 C 317.953125 111.875 326.195312 109.226562 335.28125 110.183594 C 344.371094 111.144531 353.570312 114.789062 358.03125 129.375 C 358.203125 129.9375 358.472656 130.449219 358.835938 130.910156 C 359.199219 131.375 359.632812 131.753906 360.140625 132.050781 C 360.644531 132.351562 361.191406 132.546875 361.769531 132.644531 C 362.347656 132.738281 362.925781 132.726562 363.503906 132.605469 C 367.625 131.730469 373.3125 131.855469 377.550781 133.851562 C 381.789062 135.847656 385 139.132812 385.738281 146.921875 C 385.84375 148.054688 386.304688 149.023438 387.113281 149.824219 L 387.113281 129.085938 C 385.410156 127.519531 383.527344 126.269531 381.558594 125.339844 C 376.230469 122.832031 370.558594 122.34375 365.542969 122.828125 C 359.355469 107.824219 346.84375 101.945312 336.269531 100.832031 C 329.753906 100.144531 324.019531 100.914062 320.070312 101.710938 C 317.558594 92.71875 311.871094 85.890625 304.785156 81.011719 C 296.410156 75.242188 286.183594 71.746094 275.917969 68.710938 C 265.652344 65.675781 255.304688 63.121094 246.867188 59.800781 C 238.433594 56.480469 232.195312 52.460938 229.148438 47.160156 C 228.730469 46.433594 228.160156 45.863281 227.433594 45.441406 C 226.710938 45.019531 225.929688 44.808594 225.09375 44.804688 Z M 225.09375 44.804688 " fill-opacity="1" fill-rule="nonzero"/></g></svg>