<svg xmlns="http://www.w3.org/2000/svg" xmlns:xlink="http://www.w3.org/1999/xlink" width="600" zoomAndPan="magnify" viewBox="0 0 450 149.999998" height="200" preserveAspectRatio="xMidYMid meet" version="1.0"><defs><clipPath id="366f9e423b"><path d="M 232.050781 63.503906 L 232.398438 63.503906 L 232.398438 63.746094 L 232.050781 63.746094 Z M 232.050781 63.503906 " clip-rule="nonzero"/></clipPath><clipPath id="19160815f3"><path d="M 232.382812 63.648438 C 231.742188 63.90625 232.253906 63.519531 232.253906 63.519531 " clip-rule="nonzero"/></clipPath><clipPath id="b3c7a54ae4"><path d="M 0.839844 21.574219 L 449.339844 21.574219 L 449.339844 128.074219 L 0.839844 128.074219 Z M 0.839844 21.574219 " clip-rule="nonzero"/></clipPath></defs><g clip-path="url(#366f9e423b)"><g clip-path="url(#19160815f3)"><path fill="#e7fce3" d="M 229.238281 60.953125 L 235.019531 60.953125 L 235.019531 66.539062 L 229.238281 66.539062 Z M 229.238281 60.953125 " fill-opacity="1" fill-rule="nonzero"/></g></g><g clip-path="url(#b3c7a54ae4)"><path fill="#fbc50b" d="M 445.542969 71.828125 L 430.535156 58.644531 L 427.890625 46.355469 L 426.964844 42.078125 L 422.726562 43.171875 L 414.984375 45.160156 C 412.765625 40.757812 407.871094 35.917969 398.703125 35.660156 C 395.058594 35.558594 382.589844 35.507812 360.632812 35.507812 C 336.726562 35.507812 307.257812 35.570312 288.640625 35.609375 L 272.335938 35.648438 C 269.496094 32.9375 263.296875 29.1875 252.371094 29.1875 C 239.851562 29.1875 232.058594 27.519531 227.859375 23.9375 L 225.085938 21.574219 L 222.246094 23.847656 C 218.074219 27.480469 210.253906 29.175781 197.644531 29.175781 C 186.796875 29.175781 180.632812 32.847656 177.71875 35.632812 L 161.347656 35.597656 C 142.730469 35.558594 113.277344 35.492188 89.382812 35.492188 C 67.414062 35.492188 54.945312 35.542969 51.296875 35.648438 C 42.132812 35.902344 37.238281 40.730469 35.019531 45.148438 L 27.273438 43.160156 L 23.039062 42.066406 L 22.125 46.34375 L 19.480469 58.628906 L 4.445312 71.828125 L 0.851562 74.988281 L 4.445312 78.148438 L 19.457031 91.332031 L 22.101562 103.632812 L 23.011719 107.910156 L 27.25 106.816406 L 34.992188 104.828125 C 37.214844 109.230469 42.105469 114.058594 51.273438 114.328125 C 54.867188 114.433594 67.605469 114.484375 89.113281 114.484375 C 114.085938 114.484375 145.207031 114.40625 163.683594 114.382812 L 177.679688 114.355469 C 180.621094 117.152344 186.886719 120.8125 197.632812 120.8125 C 210.164062 120.8125 217.945312 122.484375 222.132812 126.066406 L 224.878906 128.414062 L 227.742188 126.128906 C 231.929688 122.496094 239.75 120.800781 252.34375 120.800781 C 263.089844 120.800781 269.371094 117.152344 272.308594 114.34375 L 286.304688 114.367188 C 304.78125 114.40625 335.90625 114.472656 360.867188 114.472656 C 382.371094 114.472656 395.109375 114.417969 398.703125 114.316406 C 407.871094 114.058594 412.765625 109.230469 414.984375 104.816406 L 422.726562 106.804688 L 426.964844 107.898438 L 427.890625 103.621094 L 430.535156 91.320312 L 445.542969 78.132812 L 449.140625 74.976562 Z M 445.542969 71.828125 " fill-opacity="1" fill-rule="nonzero"/></g><path fill="#005f4e" d="M 224.878906 122.867188 C 219.757812 118.488281 211.152344 116.613281 197.632812 116.613281 C 184.011719 116.613281 179.542969 110.207031 179.582031 110.167969 C 179.605469 110.132812 63.714844 110.492188 51.402344 110.15625 C 39.089844 109.808594 37.726562 99.832031 37.726562 99.832031 L 26.222656 102.773438 L 23.28125 89.125 L 7.234375 75.015625 L 23.28125 60.917969 L 26.222656 47.265625 L 37.726562 50.207031 C 37.726562 50.207031 39.089844 40.21875 51.402344 39.871094 C 63.726562 39.523438 179.605469 39.882812 179.582031 39.847656 C 179.542969 39.808594 184.011719 33.386719 197.632812 33.386719 C 211.257812 33.386719 219.886719 31.472656 224.996094 27.03125 L 225.109375 27.132812 C 230.246094 31.5 238.835938 33.386719 252.355469 33.386719 C 265.980469 33.386719 270.449219 39.808594 270.421875 39.847656 C 270.382812 39.882812 386.289062 39.523438 398.601562 39.871094 C 410.929688 40.21875 412.277344 50.207031 412.277344 50.207031 L 423.78125 47.265625 L 426.722656 60.917969 L 442.769531 75.015625 L 426.722656 89.125 L 423.78125 102.773438 L 412.277344 99.832031 C 412.277344 99.832031 410.914062 109.808594 398.601562 110.15625 C 386.289062 110.503906 270.398438 110.144531 270.421875 110.167969 C 270.460938 110.207031 265.980469 116.613281 252.355469 116.613281 C 238.734375 116.613281 230.117188 118.539062 224.996094 122.972656 Z M 224.878906 122.867188 " fill-opacity="1" fill-rule="evenodd"/></svg>